FILE "Choujin Heiki Zeroigar (Japan) (En) (v1.0.1) (SamIAm).bin" BINARY
  TRACK 01 AUDIO
    INDEX 01 00:00:00
  TRACK 02 MODE1/2048
    PREGAP 00:03:00
    INDEX 01 00:23:32
  TRACK 03 AUDIO
    PREGAP 00:02:00
    INDEX 01 41:21:02
  TRACK 04 AUDIO
    INDEX 01 44:11:03
  TRACK 05 AUDIO
    INDEX 01 48:39:04
  TRACK 06 AUDIO
    INDEX 01 60:58:52
